<svg width="25" height="25" viewBox="0 0 25 25" fill="none" xmlns="http://www.w3.org/2000/svg">
<path d="M12.4271 10.0521V15H19.1563C18.1667 17.6719 15.5938 19.4531 12.625 19.4531C8.76562 19.4531 5.69792 16.3854 5.69792 12.526C5.69792 8.66666 8.76562 5.59896 12.625 5.59896C14.1094 5.59896 15.4948 6.09375 16.6823 6.88542L17.0781 7.18229L20.0469 3.32292L19.651 3.02604C17.5729 1.54167 15.1979 0.75 12.625 0.75C6.09375 0.75 0.75 6.09375 0.75 12.625C0.75 19.1562 6.09375 24.5 12.625 24.5C19.1562 24.5 24.5 19.1562 24.5 12.625V10.151H12.4271V10.0521Z" fill="white"/>
</svg>
