<svg width="19" height="18" viewBox="0 0 19 18" fill="none" xmlns="http://www.w3.org/2000/svg">
<path d="M19 10.9305V17.8251H14.9641V11.3509C14.9641 9.75337 14.3756 8.66032 12.9462 8.66032C11.8531 8.66032 11.1805 9.41704 10.9283 10.0897C10.8442 10.3419 10.7601 10.6783 10.7601 11.0987V17.8251H6.72421C6.72421 17.8251 6.80829 6.89462 6.72421 5.80157H10.7601V7.48319C11.2646 6.64238 12.2735 5.46525 14.3756 5.46525C16.9821 5.46525 19 7.23094 19 10.9305ZM2.52018 0C1.17489 0 0.25 0.924888 0.25 2.10202C0.25 3.27915 1.09081 4.20404 2.4361 4.20404C3.86547 4.20404 4.70628 3.27915 4.70628 2.10202C4.79036 0.840807 3.94955 0 2.52018 0ZM0.502242 17.8251H4.53812V5.80157H0.502242V17.8251Z" fill="white"/>
</svg>
