<svg width="25" height="20" viewBox="0 0 25 20" fill="none" xmlns="http://www.w3.org/2000/svg">
<path d="M25 2.62499C24.125 2.99999 23.125 3.25 22.125 3.375C23.125 2.75 24 1.75 24.375 0.625004C23.375 1.25 22.375 1.625 21.125 1.875C20.25 0.875004 18.875 0.25 17.5 0.25C14.75 0.25 12.5 2.5 12.5 5.25C12.5 5.625 12.5 5.99999 12.625 6.37499C8.5 6.12499 4.74999 4.125 2.24999 1.125C1.87499 1.875 1.62499 2.75 1.62499 3.625C1.62499 5.375 2.5 6.875 3.875 7.75C3 7.75 2.24999 7.5 1.62499 7.125C1.62499 9.5 3.37499 11.625 5.62499 12C5.24999 12.125 4.75 12.125 4.25 12.125C3.875 12.125 3.625 12.125 3.25 12C3.875 14 5.75 15.5 8 15.5C6.25 16.875 4.125 17.625 1.75 17.625C1.375 17.625 1 17.625 0.5 17.5C2.75 18.875 5.375 19.75 8.25 19.75C17.5 19.75 22.5 12.125 22.5 5.5V4.875C23.5 4.5 24.375 3.62499 25 2.62499Z" fill="white"/>
</svg>
