<svg width="27" height="16" viewBox="0 0 27 16" fill="none" xmlns="http://www.w3.org/2000/svg">
<path d="M26.0079 14.3938C26.0079 14.29 25.9041 14.29 25.9041 14.1863C25.489 13.356 24.555 12.3183 23.3096 11.1767C22.687 10.6578 22.3756 10.2427 22.1681 10.0351C21.8567 9.62001 21.8567 9.30868 21.9605 8.89357C22.0643 8.58223 22.4794 8.06332 23.2059 7.12932C23.621 6.61042 23.8285 6.2991 24.1399 5.98776C25.6965 3.91219 26.423 2.56306 26.2154 1.94038L26.1117 1.83661C26.0079 1.73284 25.9041 1.62906 25.6965 1.62906C25.489 1.52528 25.1777 1.52528 24.8663 1.62906H20.9227C20.819 1.62906 20.8189 1.62906 20.6114 1.62906C20.5076 1.62906 20.4038 1.62906 20.4038 1.62906H20.3001H20.1963L20.0925 1.73283C19.9887 1.83661 19.9887 1.83661 19.9887 1.94038C19.5736 3.08195 19.0547 4.01596 18.5358 5.05374C18.2245 5.57264 17.9131 6.09154 17.6018 6.50665C17.2905 6.92177 17.0829 7.2331 16.8753 7.44066C16.6678 7.64821 16.4602 7.75199 16.3565 7.95955C16.2527 8.06333 16.0451 8.16711 16.0451 8.06333C15.9414 8.06333 15.8376 8.06333 15.8376 7.95955C15.7338 7.85577 15.63 7.75199 15.5262 7.64821C15.4225 7.54443 15.4224 7.33687 15.3187 7.12932C15.3187 6.92176 15.3187 6.7142 15.3187 6.61042C15.3187 6.50664 15.3187 6.19532 15.3187 5.98776C15.3187 5.67642 15.3187 5.46886 15.3187 5.36508C15.3187 5.05375 15.3187 4.63864 15.3187 4.22353C15.3187 3.80841 15.3187 3.49707 15.3187 3.28951C15.3187 3.08195 15.3187 2.77062 15.3187 2.56306C15.3187 2.25173 15.3187 2.04416 15.3187 1.94038C15.3187 1.83661 15.2149 1.62905 15.2149 1.52528C15.1111 1.4215 15.0073 1.31772 14.9036 1.21394C14.7998 1.11016 14.5922 1.11016 14.4885 1.00638C13.9696 0.902604 13.3469 0.798828 12.6204 0.798828C10.96 0.798828 9.81842 0.90261 9.4033 1.11017C9.19575 1.21395 8.98819 1.31772 8.88441 1.52528C8.67685 1.73283 8.67685 1.83661 8.78062 1.83661C9.29952 1.94039 9.71464 2.14794 9.9222 2.45928L10.026 2.66685C10.1298 2.77063 10.1297 2.97817 10.2335 3.28951C10.3373 3.60085 10.3373 3.91218 10.3373 4.3273C10.3373 4.94997 10.3373 5.57265 10.3373 5.98776C10.3373 6.50665 10.2335 6.81798 10.2335 7.12932C10.2335 7.44065 10.1298 7.64822 10.026 7.752C9.9222 7.95955 9.92219 8.06333 9.81841 8.06333C9.81841 8.06333 9.8184 8.1671 9.71463 8.1671C9.61085 8.1671 9.50707 8.27089 9.29952 8.27089C9.19574 8.27089 8.98819 8.16711 8.88441 8.06333C8.67685 7.95956 8.46929 7.752 8.36552 7.54444C8.15796 7.33688 7.9504 7.02554 7.74284 6.61042C7.53528 6.19531 7.22393 5.7802 7.01637 5.15753L6.80884 4.74242C6.70506 4.53486 6.4975 4.11974 6.28994 3.60085C6.08239 3.08196 5.87482 2.66685 5.66726 2.14795C5.56349 1.9404 5.45972 1.83661 5.35594 1.73283H5.25216C5.25216 1.73283 5.14836 1.62906 5.04459 1.62906C4.94081 1.62906 4.83704 1.52528 4.73326 1.52528H0.997225C0.58211 1.52528 0.374556 1.62905 0.270777 1.73283L0.166992 1.83661C0.166992 1.83661 0.166992 1.94039 0.166992 2.04417C0.166992 2.14795 0.166999 2.25172 0.270777 2.45928C0.78967 3.70462 1.41234 4.94997 2.03501 6.19532C2.65768 7.33688 3.28036 8.37467 3.69548 9.10112C4.21437 9.82757 4.62948 10.554 5.14837 11.1767C5.66726 11.7994 5.97859 12.2145 6.08237 12.422C6.28993 12.6296 6.3937 12.7334 6.49748 12.8371L6.80884 13.1485C7.01639 13.356 7.32772 13.6674 7.74284 13.9787C8.15795 14.2901 8.67684 14.6014 9.19573 14.9127C9.71463 15.2241 10.3373 15.4316 10.96 15.6392C11.6864 15.8467 12.3091 15.9505 12.9318 15.8467H14.4885C14.7998 15.8467 15.0074 15.743 15.2149 15.5354L15.3187 15.4316C15.3187 15.3278 15.4225 15.3278 15.4225 15.2241C15.4225 15.1203 15.4225 15.0165 15.4225 14.8089C15.4225 14.3938 15.4225 14.0825 15.5262 13.7712C15.63 13.4598 15.63 13.2523 15.7338 13.0447C15.8376 12.8372 15.9414 12.7334 16.0451 12.6296C16.1489 12.5258 16.2527 12.422 16.2527 12.422H16.3565C16.564 12.3183 16.8754 12.422 17.0829 12.6296C17.3943 12.8371 17.7056 13.1485 17.9131 13.4598C18.1207 13.7712 18.4321 14.0825 18.8472 14.4976C19.2623 14.9127 19.5736 15.2241 19.7812 15.3278L20.0925 15.5354C20.3 15.6392 20.5076 15.743 20.819 15.8467C21.1303 15.9505 21.3378 15.9505 21.5454 15.9505L25.0739 15.8467C25.3852 15.8467 25.6965 15.743 25.9041 15.6392C26.1117 15.5354 26.2154 15.4316 26.2154 15.2241C26.2154 15.1203 26.2154 14.9127 26.2154 14.8089C26.0079 14.6014 26.0079 14.4976 26.0079 14.3938Z" fill="white"/>
</svg>
