<svg width="31" height="31" viewBox="0 0 31 31" xmlns="http://www.w3.org/2000/svg">
<path d="M30.8108 28.9843L21.8055 19.9791C23.5136 17.8704 24.5417 15.1896 24.5417 12.2709C24.5417 5.50475 19.037 0 12.2708 0C5.50469 0 0 5.50475 0 12.2709C0 19.037 5.50476 24.5418 12.2709 24.5418C15.1896 24.5418 17.8704 23.5136 19.9791 21.8056L28.9844 30.8109C29.2367 31.063 29.6455 31.063 29.8978 30.8109L30.8109 29.8977C31.0631 29.6455 31.0631 29.2365 30.8108 28.9843ZM12.2709 21.9584C6.92888 21.9584 2.58336 17.6129 2.58336 12.2709C2.58336 6.92888 6.92888 2.58336 12.2709 2.58336C17.6129 2.58336 21.9584 6.92888 21.9584 12.2709C21.9584 17.6129 17.6129 21.9584 12.2709 21.9584Z"/>
</svg>
