<svg width="131" height="99" viewBox="0 0 131 99" fill="none" xmlns="http://www.w3.org/2000/svg">
<path d="M88.0263 43.7988C86.955 42.2073 85.8532 40.0342 84.6595 37.6774C83.4658 35.3207 84.7819 32.4436 84.5064 30.3929C84.231 28.3117 82.7312 26.3834 82.7312 26.3834C81.6294 24.394 80.3745 22.8636 79.0278 21.6699C79.5175 22.129 77.8341 25.7713 77.5586 26.3222C76.7935 27.9138 75.7528 29.3523 74.4673 30.546C72.2024 32.6579 69.2335 33.7903 66.1728 34.1576C63.51 34.4943 60.0514 34.4943 58.6741 37.402C56.3785 42.3297 59.6229 53.5013 64.0303 57.2659C67.9786 60.6021 79.5481 62.2549 81.507 61.153C83.4658 60.0512 83.2209 59.5003 82.8231 57.4802C82.4252 55.4907 84.1086 55.7356 85.1492 54.6337C86.1898 53.5319 83.8331 52.4912 83.8331 52.4912C85.9144 52.5219 86.3123 52.124 85.4247 50.0427C84.5371 47.9308 86.5265 47.5329 86.5265 47.5329C90.6585 47.1962 89.0975 45.421 88.0263 43.7988Z"/>
<path d="M54.4194 32.137C54.3582 31.5249 54.2052 30.9434 53.9603 30.3924C53.3788 28.9845 52.3687 27.8214 51.0526 27.0257C50.165 26.5053 49.1856 26.1381 48.1449 26.0462C47.9001 26.0156 47.6246 26.0156 47.3798 26.0156C44.9312 26.0156 42.7887 27.2399 41.5032 29.0763C41.2584 29.4436 40.9523 29.7497 40.6462 30.0252C39.6668 30.8515 38.3507 31.3106 37.004 31.3106H32.2599C30.4847 31.3106 29.138 31.28 28.4646 30.3006C27.6076 29.0457 26.1385 28.2193 24.4857 28.2193C24.302 28.2193 24.149 28.2193 23.9654 28.2499C21.7617 28.4642 19.9558 30.2394 19.711 32.4125C19.3743 35.259 21.6392 37.6769 24.4857 37.6769C26.1079 37.6769 27.5464 36.8811 28.434 35.6569C29.138 34.6468 30.4541 34.5856 32.2599 34.5856H37.004C38.8404 34.5856 40.5238 35.4732 41.5644 36.9424C42.8499 38.7176 44.9618 39.8806 47.3492 39.8806C48.8183 39.8806 50.165 39.4215 51.2975 38.687C53.44 37.279 54.7255 34.8305 54.4194 32.137ZM47.3492 36.5138C45.3291 36.5138 43.6763 34.9223 43.6763 32.9328C43.6763 30.9434 45.3291 29.3518 47.3492 29.3518C49.3692 29.3518 51.022 30.9434 51.022 32.9328C50.9914 34.8917 49.3692 36.5138 47.3492 36.5138Z"/>
<path d="M24.4548 9.51932C26.6279 9.51932 28.3725 7.77471 28.3725 5.63221C28.3725 3.48972 26.6279 1.74512 24.4548 1.74512C22.2817 1.74512 20.5371 3.48972 20.5371 5.63221C20.5371 7.77471 22.3123 9.51932 24.4548 9.51932Z"/>
<path d="M73.1511 14.5677C71.4371 11.5683 68.1927 9.51758 64.4587 9.51758C61.0613 9.51758 58.0924 11.201 56.2866 13.772C55.552 14.8432 54.848 15.9757 54.0522 16.8327C53.134 17.3836 52.0322 17.6897 50.9303 17.6897H50.3794H44.6559C42.7276 17.6897 40.8606 16.8021 39.7894 15.2105C38.412 13.1598 36.0859 11.8437 33.4231 11.8437C33.1476 11.8437 32.8722 11.8437 32.5967 11.8743C29.0769 12.2416 26.1998 15.0881 25.8019 18.6079C25.2816 23.2295 28.8932 27.1166 33.4231 27.1166C36.0247 27.1166 38.3202 25.8311 39.6975 23.8723C40.83 22.2501 42.6664 21.2707 44.6253 21.2707H45.0538H50.8997C51.5731 21.2707 52.2158 21.3931 52.828 21.6074C54.1747 22.4338 55.2765 23.7499 56.1641 25.0354C57.97 27.6982 61.0001 29.4428 64.4587 29.4428C64.8259 29.4428 65.1626 29.4122 65.5299 29.3816C65.6217 29.3816 65.7136 29.351 65.8054 29.351C70.274 28.7388 73.8856 25.1272 74.3754 20.6279C74.6508 18.4242 74.1611 16.3123 73.1511 14.5677ZM33.1782 23.1377C31.1582 23.1377 29.536 21.5156 29.536 19.4955C29.536 17.4754 31.1582 15.8532 33.1782 15.8532C35.1983 15.8532 36.8205 17.4754 36.8205 19.4955C36.8511 21.5156 35.1983 23.1377 33.1782 23.1377ZM70.0598 19.3118C70.0598 20.077 69.4476 20.6892 68.6824 20.6892H68.1621H66.4787C66.1114 20.6892 65.836 20.9952 65.836 21.3319V23.5662C65.836 24.3314 65.2238 24.9435 64.4587 24.9435H63.7547C63.3874 24.9435 63.0201 24.7905 62.7753 24.5457C62.5304 24.3008 62.3774 23.9641 62.3774 23.5662V21.3319C62.3774 21.2401 62.3468 21.1483 62.3162 21.087C62.2243 20.8422 61.9795 20.6892 61.704 20.6892H59.4697C59.1024 20.6892 58.7351 20.5361 58.4903 20.2913C58.2454 20.0464 58.0924 19.7097 58.0924 19.3118V18.6691C58.0924 17.9039 58.7045 17.2918 59.4697 17.2918H61.704C61.9795 17.2918 62.1937 17.1387 62.3162 16.8939C62.3468 16.8021 62.3774 16.7408 62.3774 16.649V14.9656V14.4453C62.3774 13.6801 62.9895 13.068 63.7547 13.068H64.3974C65.1626 13.068 65.7748 13.6801 65.7748 14.4453V14.9656V16.649C65.7748 17.0163 66.0808 17.2918 66.4175 17.2918H68.1009H68.6212C69.3864 17.2918 69.9985 17.9039 69.9985 18.6691V19.3118H70.0598Z" fill="#0080FF"/>
<path d="M47.5019 12.1204C50.8687 12.1204 53.5927 9.39637 53.5927 6.0602C53.5927 2.72403 50.8687 0 47.5019 0C44.1352 0 41.4111 2.72403 41.4111 6.0602C41.4111 9.39637 44.1352 12.1204 47.5019 12.1204Z"/>
<path d="M47.5019 51.9709C49.4301 51.9709 50.9911 50.4099 50.9911 48.5123C50.9911 46.6147 49.4301 45.0537 47.5019 45.0537C45.5737 45.0537 44.0127 46.6147 44.0127 48.5123C44.0127 50.4099 45.5737 51.9709 47.5019 51.9709Z"/>
<path d="M14.9056 81.6934H12.7631C12.4571 81.6934 12.2428 81.9076 12.2428 82.1831V92.9261L2.05067 81.877C1.95885 81.7546 1.80582 81.6934 1.65278 81.6934H0.520322C0.214251 81.6934 0 81.9076 0 82.1831V98.3436C0 98.6191 0.244858 98.8333 0.520322 98.8333H2.66282C2.96889 98.8333 3.18314 98.6191 3.18314 98.3436V87.6005L13.4365 98.6497C13.5283 98.7721 13.6814 98.8333 13.8344 98.8333H14.9363C15.2423 98.8333 15.4566 98.6191 15.4566 98.3436V82.1831C15.426 81.9076 15.1811 81.6934 14.9056 81.6934Z" fill="#0080FF"/>
<path d="M53.6845 81.6934H37.0955C36.7894 81.6934 36.5752 81.9076 36.5752 82.1831V84.0501C36.5752 84.3256 36.8201 84.5398 37.0955 84.5398H43.7679V98.3436C43.7679 98.6191 44.0127 98.8333 44.2882 98.8333H46.4307C46.7367 98.8333 46.951 98.6191 46.951 98.3436V84.5398H53.6539C53.96 84.5398 54.1743 84.3256 54.1743 84.0501V82.1831C54.2049 81.9076 53.96 81.6934 53.6845 81.6934Z" fill="#0080FF"/>
<path d="M71.0086 95.9869H60.3267V82.1831C60.3267 81.9076 60.0818 81.6934 59.8064 81.6934H57.6639C57.3578 81.6934 57.1436 81.9076 57.1436 82.1831V98.3436C57.1436 98.6191 57.3884 98.8333 57.6639 98.8333H71.0086C71.3146 98.8333 71.5289 98.6191 71.5289 98.3436V96.4766C71.5289 96.2011 71.284 95.9869 71.0086 95.9869Z" fill="#0080FF"/>
<path d="M89.0052 95.9865H77.6499V91.1506H89.0052C89.3112 91.1506 89.5255 90.9364 89.5255 90.6609V88.7939C89.5255 88.5184 89.2806 88.3042 89.0052 88.3042H77.6499V84.5701H89.0052C89.3112 84.5701 89.5255 84.3558 89.5255 84.0804V82.2133C89.5255 81.9379 89.2806 81.7236 89.0052 81.7236H74.9871C74.6811 81.7236 74.4668 81.9379 74.4668 82.2133V98.3739C74.4668 98.6494 74.7117 98.8636 74.9871 98.8636H89.0052C89.3112 98.8636 89.5255 98.6494 89.5255 98.3739V96.5068C89.5561 96.2008 89.3112 95.9865 89.0052 95.9865Z" fill="#0080FF"/>
<path d="M32.9026 95.9865H21.5474V91.1506H32.9026C33.2087 91.1506 33.4229 90.9364 33.4229 90.6609V88.7939C33.4229 88.5184 33.1781 88.3042 32.9026 88.3042H21.5474V84.5701H32.9026C33.2087 84.5701 33.4229 84.3558 33.4229 84.0804V82.2133C33.4229 81.9379 33.1781 81.7236 32.9026 81.7236H18.8846C18.5785 81.7236 18.3643 81.9379 18.3643 82.2133V98.3739C18.3643 98.6494 18.6091 98.8636 18.8846 98.8636H32.9026C33.2087 98.8636 33.4229 98.6494 33.4229 98.3739V96.5068C33.4229 96.2008 33.2087 95.9865 32.9026 95.9865Z" fill="#0080FF"/>
<path d="M103.299 81.9688C103.207 81.7852 103.023 81.6934 102.84 81.6934H101.126C100.942 81.6934 100.758 81.8158 100.667 81.9688L92.5252 98.1294C92.4333 98.2824 92.464 98.466 92.5558 98.6191C92.6476 98.7721 92.8006 98.8639 92.9843 98.8639H95.188C95.3716 98.8639 95.5553 98.7415 95.6471 98.5885L97.6978 94.5177H106.207L108.318 98.5885C108.41 98.7721 108.594 98.8639 108.778 98.8639H111.012C111.195 98.8639 111.349 98.7721 111.44 98.6191C111.532 98.466 111.532 98.2824 111.471 98.1294L103.299 81.9688ZM104.799 91.61H99.1669L101.983 86.0702L104.799 91.61Z" fill="#0080FF"/>
<path d="M130.937 98.0988L126.989 91.5794C127.999 91.304 128.856 90.753 129.529 90.0185C130.356 89.1003 130.784 87.9678 130.784 86.6823C130.784 85.1214 130.233 83.8971 129.162 83.0095C128.121 82.1219 126.652 81.6934 124.846 81.6934H114.991C114.685 81.6934 114.471 81.9076 114.471 82.1831V98.3436C114.471 98.6191 114.716 98.8333 114.991 98.8333H117.134C117.44 98.8333 117.654 98.6191 117.654 98.3436V91.7631H123.469L127.601 98.5885C127.693 98.7415 127.877 98.8333 128.06 98.8333H130.417C130.601 98.8333 130.784 98.7415 130.876 98.5885C131.029 98.4354 131.029 98.2518 130.937 98.0988ZM127.479 86.7435C127.479 87.4781 127.264 87.9984 126.836 88.3351C126.377 88.7024 125.673 88.886 124.724 88.886H117.684V84.5398H124.846C125.703 84.5398 126.377 84.7235 126.836 85.1213C127.264 85.5192 127.479 86.0396 127.479 86.7435Z" fill="#0080FF"/>
</svg>
